<svg id="Flat" enable-background="new 0 0 64 64" height="512" viewBox="0 0 64 64" width="512" xmlns="http://www.w3.org/2000/svg"><path d="m25 41v16l1 2v2h-5l-1-4v-16z" fill="#dbd8d5"/><path d="m50 35 7.001 7.701c1.781 1.959 2.067 4.853.705 7.123l-3.706 6.176-2 1h-2v-5l1-1 2-4-6-7z" fill="#dbd8d5"/><path d="m14 27c-3.314 0-6 2.686-6 6v6c0 2.761-2.239 5-5 5v-11c0-5.523 4.477-10 10-10h7v4z" fill="#e89d43"/><path d="m8 37.75v-2.5l-5 3.75v2.5z" fill="#e08831"/><path d="m3 33v.781l5.024-1.256c.062-.793.279-1.54.619-2.216l-5.548 1.387c-.056.428-.095.861-.095 1.304z" fill="#e08831"/><path d="m7.315 24.778c-.628.435-1.198.943-1.71 1.507l4.956 1.802c.845-.592 1.848-.971 2.934-1.061z" fill="#e08831"/><path d="m52 8h-2l-15 15h-15c-3.314 0-6 2.686-6 6v11c0 2.211-1.789 4-4 4v13l1 4h5v-2l-1-2v-9c4.1 0 7.619-2.47 9.162-6h16.838v15l1 4h5v-2l-1-2v-15l4-7v-15l8 2 3-5z" fill="#eae8e5"/><path d="m52 8 9-5-5 9z" fill="#e89d43"/><circle cx="53" cy="14" fill="#4ac3ed" r="1"/><path d="m29 23 15.002-15.002c1.656-1.656 4.34-1.656 5.996 0l.002.002-15 15z" fill="#e89d43"/><g fill="#e08831"><path d="m38 14-2 2h6l2-2z"/><path d="m38 20 2-2h-6l-2 2z"/><path d="m42 10-2 2h6l2-2z"/><path d="m58.318 7.827-5.09-.509-1.228.682 1.339 1.339 3.921.392z"/><path d="m58.109 4.606-3.066 1.703 3.902.391 1.058-1.905z"/></g></svg>